<svg width="20" height="20" viewBox="0 0 24 24" fill="none" xmlns="http://www.w3.org/2000/svg">
  <path d="M12 15.5a3.5 3.5 0 1 0 0-7 3.5 3.5 0 0 0 0 7Z" stroke="#94A3B8" stroke-width="1.8"/>
  <path d="M19.4 15a8.8 8.8 0 0 0 .1-1l2-1.2-2-3.4-2.3.6a8.2 8.2 0 0 0-1.7-1l-.3-2.4H9.8l-.3 2.4a8.2 8.2 0 0 0-1.7 1L5.5 9.4l-2 3.4L5.5 14a8.8 8.8 0 0 0 .1 1 8.8 8.8 0 0 0-.1 1l-2 1.2 2 3.4 2.3-.6a8.2 8.2 0 0 0 1.7 1l.3 2.4h4.4l.3-2.4a8.2 8.2 0 0 0 1.7-1l2.3.6 2-3.4-2-1.2a8.8 8.8 0 0 0-.1-1Z" stroke="#94A3B8" stroke-width="1.2" stroke-linejoin="round"/>
</svg>
